# xmcd CD database file
# Copyright (C) 1993-1998 Ti Kan
#
# Track frame offsets:
#	182
#	1350
#	17810
#	37565
#	55022
#	72162
#	92307
#	111622
#	129902
#	145005
#
# Disc length: 2243 seconds
#
# Revision: 1
# Processed by: cddbd v1.4b41PL1 Copyright (c) Steve Scherf et al.
# Submitted via: CDValet v3.31 - Copyright (c) 1997 Greg Leichner
#
DISCID=7208c10a
DTITLE=Etta James - Live
DYEAR=1900
DGENRE=
TTITLE0=Introduction
TTITLE1=Summer Heat
TTITLE2=Drown In My Own Tears
TTITLE3=I Can't Turn You Loose
TTITLE4=Dust My Broom
TTITLE5=I'd Rather Go Blind
TTITLE6=Booty
TTITLE7=Respect Yourself
TTITLE8=Rock Me Baby
TTITLE9=Stormy Monday
EXTD=
EXTT0=
EXTT1=
EXTT2=
EXTT3=
EXTT4=
EXTT5=
EXTT6=
EXTT7=
EXTT8=
EXTT9=
PLAYORDER=
